<svg width="27" height="27" viewBox="0 0 27 27" fill="none" xmlns="http://www.w3.org/2000/svg">
<circle cx="13.5" cy="13.5" r="13.5" fill="#285E93"/>
<path d="M20.6793 9.31832C20.5867 9.21746 20.4765 9.1374 20.3551 9.08276C20.2337 9.02813 20.1035 9 19.972 9C19.8405 9 19.7103 9.02813 19.5889 9.08276C19.4675 9.1374 19.3574 9.21746 19.2647 9.31832L11.8433 17.3464L8.72529 13.9673C8.62913 13.867 8.51563 13.7881 8.39125 13.7351C8.26688 13.6822 8.13406 13.6562 8.0004 13.6587C7.86673 13.6612 7.73483 13.6921 7.61222 13.7497C7.48961 13.8072 7.3787 13.8903 7.28582 13.9942C7.19294 14.0981 7.11991 14.2207 7.07089 14.3551C7.02188 14.4894 6.99784 14.6329 7.00015 14.7773C7.00246 14.9217 7.03108 15.0642 7.08437 15.1966C7.13766 15.3291 7.21458 15.4489 7.31073 15.5492L11.136 19.6817C11.2286 19.7825 11.3388 19.8626 11.4602 19.9172C11.5816 19.9719 11.7118 20 11.8433 20C11.9748 20 12.105 19.9719 12.2264 19.9172C12.3478 19.8626 12.458 19.7825 12.5506 19.6817L20.6793 10.9003C20.7804 10.7995 20.8611 10.6772 20.9163 10.5411C20.9715 10.4049 21 10.2579 21 10.1093C21 9.96068 20.9715 9.81367 20.9163 9.67754C20.8611 9.5414 20.7804 9.4191 20.6793 9.31832Z" fill="white"/>
</svg>
