<svg width="92" height="92" viewBox="0 0 92 92" fill="none" xmlns="http://www.w3.org/2000/svg">
<path d="M92 0H0V92H92V0Z" fill="#1D1D1B"/>
<path d="M10.487 49.5226V48.9754H12.3048V32.4799H10.487V31.9042H17.0012V33.2682C17.2449 32.9337 18.3963 31.5723 20.8184 31.5723C24.4541 31.5723 26.7284 34.3315 26.7284 38.5117C26.7284 42.692 24.3348 45.7832 20.7276 45.7832C18.3652 45.7832 17.2423 44.4814 17.0012 44.1468V48.9754H18.7594V49.5226H10.487ZM17.0012 41.844C17.0012 43.7838 17.9399 44.5099 19.0628 44.5099C21.0336 44.5099 21.9102 42.329 21.9102 38.6622C21.9102 34.9953 21.0311 32.8429 19.0913 32.8429C17.9399 32.8429 17.0012 33.6313 17.0012 35.5996V41.8415V41.844Z" fill="#F2CD00"/>
<path d="M41.5177 41.5408C41.2143 44.0562 39.2149 46.0867 35.3977 46.0867C30.8233 46.0867 28.0641 43.1771 28.0641 38.9346C28.0641 34.6921 30.9425 31.5698 35.3666 31.5698C39.4587 31.5698 41.7615 34.2357 41.7304 38.1774H32.82V38.6312C32.82 42.1165 33.9118 44.6008 37.0937 44.6008C39.0931 44.6008 40.5193 43.4494 40.8202 41.5408H41.5177ZM37.1248 37.6017C37.1248 33.7844 36.5491 32.2078 35.2162 32.2078C33.8833 32.2078 32.9445 34.0567 32.8226 37.6017H37.1248Z" fill="#F2CD00"/>
<path d="M52.6062 42.1164C52.6062 44.3284 50.7884 46.0866 48.1225 46.0866C44.8499 46.0866 43.3354 44.2688 43.3354 41.5407V32.48H41.8495V31.9043H43.3354V29.3888L48.0033 27.8433V31.9043H52.2147V32.48H48.0033V41.6315C48.0033 43.2989 48.6101 44.2377 50.0338 44.2377C51.2163 44.2377 51.9735 43.2678 51.9735 42.1164H52.6088H52.6062Z" fill="#F2CD00"/>
<path d="M64.3355 36.8138C63.9725 34.0857 62.5488 32.299 59.9115 32.299C58.244 32.299 57.3649 33.147 57.3649 34.3295C57.3649 37.9652 65.2743 36.0255 65.2743 41.5413C65.2743 44.0567 63.3656 46.0872 58.9416 46.0872C56.2135 46.0872 55.184 45.1173 54.1234 45.1173C53.82 45.1173 53.5166 45.33 53.5166 45.9368H52.972V40.574H53.4569C53.8822 43.5147 55.5471 45.4519 58.3659 45.4519C60.0333 45.4519 61.0032 44.6039 61.0032 43.3306C61.0032 39.726 53.1561 41.2404 53.1561 36.1499C53.1561 33.6941 54.9143 31.604 59.2476 31.604C61.7319 31.604 62.7925 32.452 63.7313 32.452C64.0347 32.452 64.307 32.2705 64.307 31.6948H64.8516V36.8164H64.3355V36.8138Z" fill="#F2CD00"/>
<path d="M74.5322 52.464V52.3966H74.7707V50.0652H74.68C74.2832 50.0652 74.1276 50.3194 74.068 50.7395H73.998V49.8682H74.0602C74.0576 49.9589 74.0913 50.003 74.1613 50.003H76.044C76.114 50.003 76.1503 49.9615 76.1451 49.8682H76.2074V50.7395H76.1374C76.0777 50.3168 75.9221 50.0652 75.5254 50.0652H75.4346V52.3966H75.6732V52.464H74.5296H74.5322Z" fill="#F2CD00"/>
<path d="M78.012 52.4639V52.3965H78.248V50.3841C78.0587 51.0765 77.8616 51.7741 77.6749 52.4639H77.2522L76.6272 50.3686V51.9945C76.6272 52.2824 76.7283 52.3991 76.8476 52.3991H76.8865V52.4665H76.2823V52.3991H76.3212C76.4405 52.3991 76.5416 52.2824 76.5416 51.9945V50.0729H76.3056V50.0029H77.2003L77.7423 51.896L78.2635 50.0029H79.1245V50.0729H78.8885V52.3991H79.1245V52.4665H78.012V52.4639Z" fill="#F2CD00"/>
<path d="M42.4565 60.6738C42.4565 61.431 42.0623 62.0378 41.427 62.0378C40.7916 62.0378 40.579 61.5529 40.579 60.7049V54.463C40.579 51.1903 38.367 49.4321 34.3656 49.4321C30.3643 49.4321 28.3363 51.2811 28.3363 53.3712C28.3363 54.673 29.3373 55.6429 30.6703 55.6429C32.1251 55.6429 33.2168 54.7327 33.2168 53.5217C33.2168 52.3106 32.2469 51.613 31.1267 51.613C30.914 51.613 30.8233 51.4912 30.8233 51.4004C30.8233 50.7936 31.8528 50.1271 33.3387 50.1271C35.1254 50.1271 36.1575 51.0062 36.1575 52.7022C36.1575 58.2465 27.6128 55.1865 27.6128 60.4585C27.6128 62.6394 29.4618 63.9438 31.7957 63.9438C34.7338 63.9438 35.9786 61.8226 36.2198 61.4595C36.6139 63.0362 37.825 63.9153 39.6739 63.9153C42.0986 63.9153 43.0062 62.1882 43.0062 60.6738H42.4617H42.4565ZM35.9708 60.1292C35.9708 61.431 35.1825 62.2816 34.0311 62.2816C33.0612 62.2816 32.2132 61.5555 32.2132 60.1007C32.2132 57.0692 34.4849 56.7969 35.9708 55.2825V60.1318V60.1292Z" fill="#F2CD00"/>
<path d="M63.5157 52.1583C63.5157 50.9757 64.3948 50.1278 66.0622 50.1278C68.6995 50.1278 70.1232 51.9145 70.4863 54.6426H71.0023V49.5209H70.4578C70.4578 50.0966 70.1855 50.2782 69.8821 50.2782C68.9433 50.2782 67.8827 49.4302 65.3984 49.4302C61.0651 49.4302 59.3069 51.5203 59.3069 53.9761C59.3069 59.0666 67.154 57.5522 67.154 61.1568C67.154 62.43 66.1841 63.278 64.5167 63.278C61.6978 63.278 60.033 61.3383 59.6077 58.4002H59.1228V63.763H59.6673C59.6673 63.1561 59.9707 62.9435 60.2741 62.9435C61.3348 62.9435 62.3643 63.9134 65.0924 63.9134C69.5164 63.9134 71.425 61.8829 71.425 59.3674C71.425 53.8516 63.5157 55.7914 63.5157 52.1557V52.1583Z" fill="#F2CD00"/>
<path d="M25.5176 63.0364V48.5065V49.0537V45.8433L20.759 47.3888V49.0537V48.5065V63.0364H18.9126V63.6121H27.2758V63.0364H25.5176Z" fill="#F2CD00"/>
<path d="M52.033 49.4012C49.6394 49.4012 48.4569 50.7652 48.2157 51.0971V47.3888L43.6698 45.8433V60.4017C43.6698 61.5219 43.4572 62.2792 43.1538 63.2801L42.7596 64.4627H43.3949C43.9395 62.6448 44.3648 62.0976 45.0624 62.0976C46.6391 62.0976 47.4248 63.8558 50.4252 63.8558C54.9711 63.8558 57.9403 60.6739 57.9403 56.2499C57.9403 52.1889 55.7283 49.4012 52.0304 49.4012H52.033ZM50.3059 63.1583C49.1856 63.1583 48.2157 62.4322 48.2157 60.4302V53.4311C48.2157 51.4602 49.1545 50.703 50.3059 50.703C52.2456 50.703 53.1247 53.0654 53.1247 56.7037C53.1247 60.342 52.2456 63.1583 50.3059 63.1583Z" fill="#F2CD00"/>
<path d="M76.516 31.9048V32.4208H77.0009C78.6062 32.4208 78.8784 33.6941 78.3028 35.1178L75.9403 41.1185L72.2138 32.4831H74.0317V31.9074H65.487V32.4831H67.2737L72.4421 43.4628L72.6132 43.8259L73.067 44.8061L73.08 44.832L73.2641 45.234L73.8839 46.5591C73.3808 47.9906 72.6703 48.7634 71.5967 48.963C70.5827 49.1524 70.0537 48.7893 69.9292 48.2888C69.9733 48.1877 70.1107 48.0995 70.3493 48.0554C71.3918 47.8609 72.0971 47.0207 71.8871 45.8875C71.6822 44.7854 70.8576 44.1682 69.548 44.4119C68.3266 44.6401 67.5512 45.7708 67.7898 47.0518C68.1114 48.7789 69.4702 49.9433 71.6745 49.5336C73.1189 49.2639 73.9954 48.2369 74.597 46.2998L74.8875 45.5633L75.375 44.3367L78.9692 35.2708C79.6357 33.5437 80.5148 32.4234 81.7881 32.4234H82.1822V31.9074H76.516V31.9048Z" fill="#F2CD00"/>
</svg>
