<svg width="101" height="20" viewBox="0 0 101 20" fill="none" xmlns="http://www.w3.org/2000/svg">
<g clip-path="url(#clip0_0_1)">
<path d="M0 7.36896L6.93026 6.91333L9.54022 0.356445L12.1502 6.91333L19.0728 7.36896L13.7632 11.8774L15.5056 18.7164L9.54022 14.9457L3.57485 18.7164L5.31719 11.8774L0 7.36896Z" fill="#F2CD00"/>
</g>
<g clip-path="url(#clip1_0_1)">
<path d="M20.3444 7.36896L27.2746 6.91333L29.8846 0.356445L32.4946 6.91333L39.4172 7.36896L34.1076 11.8774L35.8499 18.7164L29.8846 14.9457L23.9192 18.7164L25.6616 11.8774L20.3444 7.36896Z" fill="#F2CD00"/>
</g>
<g clip-path="url(#clip2_0_1)">
<path d="M40.6887 7.36896L47.619 6.91333L50.229 0.356445L52.8389 6.91333L59.7616 7.36896L54.452 11.8774L56.1943 18.7164L50.229 14.9457L44.2636 18.7164L46.0059 11.8774L40.6887 7.36896Z" fill="#F2CD00"/>
</g>
<g clip-path="url(#clip3_0_1)">
<path d="M61.0331 7.36896L67.9634 6.91333L70.5733 0.356445L73.1833 6.91333L80.106 7.36896L74.7963 11.8774L76.5387 18.7164L70.5733 14.9457L64.608 18.7164L66.3503 11.8774L61.0331 7.36896Z" fill="#F2CD00"/>
</g>
<g clip-path="url(#clip4_0_1)">
<path d="M81.3775 7.36896L88.3077 6.91333L90.9177 0.356445L93.5277 6.91333L100.45 7.36896L95.1407 11.8774L96.883 18.7164L90.9177 14.9457L84.9523 18.7164L86.6947 11.8774L81.3775 7.36896Z" fill="#F2CD00"/>
</g>
<defs>
<clipPath id="clip0_0_1">
<rect width="19.0728" height="19.0728" fill="white" transform="matrix(-1 0 0 1 19.0728 0)"/>
</clipPath>
<clipPath id="clip1_0_1">
<rect width="19.0728" height="19.0728" fill="white" transform="matrix(-1 0 0 1 39.4172 0)"/>
</clipPath>
<clipPath id="clip2_0_1">
<rect width="19.0728" height="19.0728" fill="white" transform="matrix(-1 0 0 1 59.7616 0)"/>
</clipPath>
<clipPath id="clip3_0_1">
<rect width="19.0728" height="19.0728" fill="white" transform="matrix(-1 0 0 1 80.106 0)"/>
</clipPath>
<clipPath id="clip4_0_1">
<rect width="19.0728" height="19.0728" fill="white" transform="matrix(-1 0 0 1 100.45 0)"/>
</clipPath>
</defs>
</svg>
