<svg width="42" height="38" viewBox="0 0 42 38" fill="none" xmlns="http://www.w3.org/2000/svg">
<path d="M0.974071 10.9399C0.974071 5.2922 5.54589 0.714085 11.1858 0.714085C16.8257 0.714085 21.3975 5.2922 21.3975 10.9399C21.3975 16.5877 16.8257 21.1657 11.1858 21.1657C10.0267 21.1657 8.91716 20.9634 7.87849 20.6068C10.1766 33.805 20.4544 42.3163 10.9269 35.3113C0.362233 27.5436 0.962757 11.2524 0.974578 10.9539C0.974578 10.9492 0.974071 10.9451 0.974071 10.9399Z" fill="black"/>
<path d="M21.4066 10.9399C21.4066 5.2922 25.9784 0.714085 31.6184 0.714085C37.2583 0.714085 41.8302 5.2922 41.8302 10.9399C41.8302 16.5877 37.2583 21.1657 31.6183 21.1657C30.4591 21.1657 29.3497 20.9634 28.311 20.6068C30.6091 33.805 40.887 42.3163 31.3594 35.3113C20.7948 27.5436 21.3952 11.2524 21.4071 10.9539C21.4071 10.9492 21.4066 10.9451 21.4066 10.9399Z" fill="black"/>
</svg>
