<svg width="42" height="38" viewBox="0 0 42 38" fill="none" xmlns="http://www.w3.org/2000/svg">
<path d="M41.2125 27.1195C41.2125 32.8164 36.6008 37.4343 30.9117 37.4343C25.2226 37.4343 20.6109 32.8164 20.6109 27.1195C20.6109 21.4226 25.2226 16.8047 30.9117 16.8047C32.0809 16.8047 33.2001 17.0088 34.2479 17.3684C31.9298 4.05533 21.5622 -4.53011 31.1729 2.53588C41.8297 10.3713 41.2239 26.8042 41.212 27.1054C41.212 27.1101 41.2125 27.1143 41.2125 27.1195Z" fill="black"/>
<path d="M20.6017 27.1192C20.6017 32.8161 15.99 37.4341 10.3009 37.4341C4.61172 37.4341 3.43323e-05 32.8161 3.43323e-05 27.1192C3.43323e-05 21.4223 4.6118 16.8044 10.3009 16.8044C11.4702 16.8044 12.5893 17.0085 13.6371 17.3682C11.3189 4.05509 0.951433 -4.53036 10.5621 2.53563C21.2189 10.371 20.6132 26.804 20.6012 27.1051C20.6012 27.1098 20.6017 27.114 20.6017 27.1192Z" fill="black"/>
</svg>
